<svg width="185" height="17" viewBox="0 0 185 17" fill="none" xmlns="http://www.w3.org/2000/svg"><g clip-path="url(#a)" fill="#fff"><path d="M13.338 3.584H8.095v12.425H5.244V3.584H0V.85h13.338v2.733Zm32.155 12.425L40.334 3.702l-5.19 12.307h-3.085L38.59.85h3.542l6.531 15.158h-3.17Zm28.41-7.036-2.127 2.001v5.035H68.99V.85h2.787v6.79L78.818.851h3.776L76.03 6.972l7.19 9.037h-3.808l-5.51-7.036Zm10.307-.538c0-4.453 3.48-7.885 7.978-7.885 4.467 0 7.914 3.42 7.914 7.885s-3.447 7.886-7.914 7.886c-4.5-.011-7.978-3.432-7.978-7.886ZM116.982.851V16.01h-2.851V9.802h-7.796v6.218h-2.84V.85h2.85v6.22h7.797V.851h2.84Zm17.062 2.668H128.8v12.49h-2.851V3.519h-5.244V.851h13.339V3.52Zm16.89-2.668V16.02h-2.85v-2.53c-1.234 1.571-3.053 2.529-5.063 2.529-3.989 0-7.074-3.217-7.074-7.735 0-4.519 3.085-7.735 7.074-7.735 2.095 0 3.956 1.043 5.212 2.71V.852h2.701Zm-2.765 7.434c0-2.97-1.979-5.11-4.68-5.11-2.67 0-4.617 2.14-4.617 5.11 0 2.969 1.947 5.11 4.617 5.11 2.701 0 4.68-2.141 4.68-5.11Zm11.764.527-2.127 1.958v5.228h-2.787V.851h2.787v6.66l7.041-6.66h3.776l-6.563 6.003 7.435 9.155h-3.808l-5.754-7.197Zm24.507-5.293h-5.244v12.49h-2.851V3.519h-5.244V.851h13.339V3.52ZM61.895 11.501c-.926 1.453-2.308 2.216-4.18 2.216-2.575 0-4.478-1.474-4.915-3.959h12.413c.266-2.485-.297-4.808-1.808-6.583C61.905 1.42 59.916.55 57.481.55c-2.224 0-4.085.753-5.606 2.28-1.51 1.528-2.287 3.443-2.287 5.691 0 2.249.766 4.131 2.308 5.659 1.543 1.527 3.436 2.28 5.723 2.28 3.233 0 5.701-1.495 7.063-3.98l-.117-.054-2.67-.925Zm-4.414-8.23c2.34 0 4.148 1.56 4.648 3.83h-9.307c.574-2.27 2.382-3.83 4.659-3.83Zm-30.017 8.23c-.925 1.453-2.308 2.216-4.18 2.216-2.574 0-4.478-1.474-4.914-3.959h12.413c.266-2.485-.298-4.808-1.809-6.583C27.464 1.42 25.486.55 23.05.55c-2.223 0-4.085.753-5.606 2.28-1.51 1.528-2.287 3.443-2.287 5.691 0 2.249.766 4.131 2.308 5.659 1.543 1.527 3.436 2.28 5.723 2.28 3.234 0 5.701-1.495 7.063-3.98l-.117-.054-2.67-.925Zm-4.414-8.23c2.34 0 4.148 1.56 4.648 3.83h-9.297c.564-2.27 2.372-3.83 4.649-3.83Z"/></g><defs><clipPath id="a"><path fill="#fff" transform="translate(0 .55)" d="M0 0h184.44v15.9H0z"/></clipPath></defs></svg>